#!OML:ASF H:\Terrain\Patient Classification 1\Takeo\Monday\TakeoMonday.ASF
:FULLY-SPECIFIED
:DEGREES
1819
root 10.8647 17.8075 -0.26265 -5.88983 -35.3992 0.585493
lowerback 2.35234 -8.00636 -8.42918
upperback -0.701965 -10.935 -0.696361
thorax -0.617779 -5.41302 4.06925
lowerneck -5.72779 -13.4051 -8.50872
upperneck 2.7236 -17.7486 8.54272
head 3.23382 -8.69404 2.87394
rclavicle 1.24737e-014 -1.94809e-014
rhumerus 43.1791 -17.6227 -75.9326
rradius 27.349
rwrist -41.9793
rhand -31.0429 5.59324
rfingers 7.12502
rthumb -4.32457 -24.3426
lclavicle 1.24737e-014 -1.94809e-014
lhumerus 78.4538 -56.6774 26.6782
lradius 95.4293
lwrist 39.4014
lhand -28.9511 7.46416
lfingers 7.12502
lthumb -2.30449 37.4315
rfemur -2.17431 16.2532 16.7255
rtibia 18.0829
rfoot -7.89434 -3.08216
rtoes -4.33957
lfemur 6.92485 10.6784 -24.229
ltibia 15.4902
lfoot -25.9012 30.8312
ltoes 15.7584
1820
root 10.8609 17.8059 -0.252398 -6.23825 -35.545 1.26358
lowerback 2.22018 -8.03706 -8.95572
upperback -0.8292 -10.9854 -0.778712
thorax -0.591611 -5.43174 4.24599
lowerneck -5.89679 -13.2173 -8.24751
upperneck 2.54121 -17.4491 8.01388
head 3.10915 -8.55494 2.71384
rclavicle 1.98785e-014 1.19271e-014
rhumerus 43.5413 -17.0638 -75.893
rradius 27.6292
rwrist -42.1214
rhand -30.7884 5.00179
rfingers 7.12502
rthumb -4.07876 -24.9389
lclavicle 1.98785e-014 1.19271e-014
lhumerus 78.1327 -56.1849 27.3884
lradius 94.4992
lwrist 39.2523
lhand -29.1898 7.27462
lfingers 7.12502
lthumb -2.53504 37.2393
rfemur -2.40731 16.2123 16.064
rtibia 18.4323
rfoot -8.0958 -2.80318
rtoes -4.49934
lfemur 7.07164 10.6031 -24.8707
ltibia 15.1236
lfoot -25.9374 31.0714
ltoes 16.901
1821
root 10.8551 17.8006 -0.253693 -6.33345 -35.7186 1.48324
lowerback 2.17918 -8.07902 -9.21868
upperback -0.920549 -11.0488 -0.743278
thorax -0.600888 -5.45822 4.41622
lowerneck -5.77541 -13.0425 -8.37499
upperneck 1.95646 -17.1866 8.17502
head 2.91868 -8.43008 2.82867
rclavicle 1.4561e-013 1.11319e-014
rhumerus 43.8907 -16.4331 -75.7973
rradius 27.9791
rwrist -42.5142
rhand -30.7547 4.54798
rfingers 7.12502
rthumb -4.04624 -25.3933
lclavicle 1.4561e-013 1.11319e-014
lhumerus 77.8829 -55.6195 28.2035
lradius 93.3904
lwrist 39.3563
lhand -29.457 7.27032
lfingers 7.12502
lthumb -2.79307 37.2318
rfemur -2.61122 16.3318 15.8875
rtibia 18.7438
rfoot -8.18395 -2.74635
rtoes -5.37124
lfemur 7.16573 10.7213 -25.0581
ltibia 14.7955
lfoot -25.2361 31.5145
ltoes 15.7605
1822
root 10.8465 17.8031 -0.257711 -6.08062 -35.9911 1.16237
lowerback 2.06454 -8.15622 -9.13047
upperback -0.978194 -11.1361 -0.513352
thorax -0.555229 -5.50311 4.58559
lowerneck -5.73277 -12.9904 -9.09612
upperneck 1.54928 -17.0817 8.83426
head 2.90166 -8.37079 3.1361
rclavicle -1.52816e-013 -3.24019e-014
rhumerus 44.3678 -15.6306 -75.5589
rradius 28.2813
rwrist -43.2443
rhand -30.8297 4.59359
rfingers 7.12502
rthumb -4.11865 -25.3463
lclavicle -1.52816e-013 -3.24019e-014
lhumerus 77.5623 -54.9025 29.0711
lradius 92.2391
lwrist 39.4881
lhand -29.7993 7.09256
lfingers 7.12502
lthumb -3.12364 37.0494
rfemur -2.79708 16.6467 16.2314
rtibia 18.8435
rfoot -8.13294 -2.85294
rtoes -5.29217
lfemur 7.06497 10.8878 -24.744
ltibia 14.816
lfoot -24.9358 31.7828
ltoes 14.4166
1823
root 10.841 17.8054 -0.256894 -5.90545 -36.2448 0.861929
lowerback 2.00939 -8.16028 -8.85506
upperback -1.02955 -11.13 -0.416239
thorax -0.610102 -5.4983 4.53861
lowerneck -5.88744 -13.0151 -9.46443
upperneck 1.44495 -17.0823 9.08615
head 2.94849 -8.36328 3.24939
rclavicle 2.24453e-013 2.5842e-014
rhumerus 44.6538 -15.1326 -75.3959
rradius 28.7377
rwrist -44.0116
rhand -30.8445 4.53364
rfingers 7.12502
rthumb -4.13295 -25.406
lclavicle 2.24453e-013 2.5842e-014
lhumerus 77.581 -54.3227 29.6068
lradius 91.1615
lwrist 39.573
lhand -30.0671 6.88233
lfingers 7.12502
lthumb -3.38225 36.8352
rfemur -2.81393 16.8073 16.5367
rtibia 18.7917
rfoot -8.05669 -2.7627
rtoes -4.75788
lfemur 6.97432 11.0674 -24.4428
ltibia 15.091
lfoot -25.2472 31.7598
ltoes 13.7224
1824
root 10.8407 17.7997 -0.250831 -5.96524 -36.3779 0.87041
lowerback 2.05378 -8.10974 -8.61154
upperback -1.12039 -11.0678 -0.506655
thorax -0.80068 -5.45816 4.34208
lowerneck -5.92856 -13.0117 -9.44376
upperneck 1.18852 -17.0581 9.07763
head 2.87293 -8.35228 3.25319
rclavicle 2.60159e-014 2.3059e-014
rhumerus 44.7368 -14.9217 -75.2634
rradius 29.2994
rwrist -44.7203
rhand -30.6947 4.54127
rfingers 7.12502
rthumb -3.98829 -25.4011
lclavicle 2.60159e-014 2.3059e-014
lhumerus 77.8461 -53.9244 30.0273
lradius 89.9372
lwrist 39.4534
lhand -29.9737 6.60554
lfingers 7.12502
lthumb -3.29202 36.5599
rfemur -2.66269 16.7268 16.5297
rtibia 18.6562
rfoot -8.0241 -2.50468
rtoes -4.75763
lfemur 6.94963 11.4516 -24.3981
ltibia 15.3725
lfoot -24.9622 31.768
ltoes 12.3642
1825
root 10.8402 17.7921 -0.239091 -6.13728 -36.5023 1.04004
lowerback 2.04021 -8.15566 -8.6595
upperback -1.17659 -11.1317 -0.4848
thorax -0.830134 -5.48672 4.38983
lowerneck -6.07149 -12.9021 -9.5105
upperneck 0.83399 -16.8707 9.10167
head 2.77992 -8.25797 3.28937
rclavicle -1.44442e-013 -3.26007e-014
rhumerus 44.998 -14.3154 -74.9429
rradius 29.7565
rwrist -45.3363
rhand -30.6645 4.63494
rfingers 7.12502
rthumb -3.95917 -25.308
lclavicle -1.44442e-013 -3.26007e-014
lhumerus 77.6926 -53.2479 30.8164
lradius 88.662
lwrist 39.2587
lhand -29.9615 6.36791
lfingers 7.12502
lthumb -3.28023 36.3224
rfemur -2.48399 16.5595 16.3617
rtibia 18.5284
rfoot -8.04616 -2.1661
rtoes -4.69054
lfemur 6.97284 11.7562 -24.4997
ltibia 15.545
lfoot -24.6243 31.8627
ltoes 10.9446
1826
root 10.8385 17.7918 -0.226113 -6.09785 -36.7182 0.87786
lowerback 1.94204 -8.27902 -8.62794
upperback -1.14874 -11.2798 -0.277728
thorax -0.690319 -5.56817 4.55678
lowerneck -6.445 -12.7274 -9.38724
upperneck 0.662943 -16.5812 8.77734
head 2.72219 -8.11249 3.18916
rclavicle 1.1035e-013 7.7526e-015
rhumerus 45.5131 -13.4886 -74.8165
rradius 30.2389
rwrist -45.8248
rhand -31.1203 4.71496
rfingers 7.12502
rthumb -4.39927 -25.2193
lclavicle 1.1035e-013 7.7526e-015
lhumerus 77.3007 -52.3163 31.7823
lradius 87.4868
lwrist 39.155
lhand -30.2328 6.15712
lfingers 7.12502
lthumb -3.54232 36.1074
rfemur -2.42361 16.4973 16.5015
rtibia 18.5274
rfoot -8.0511 -1.87902
rtoes -4.815
lfemur 7.08989 11.6728 -24.3554
ltibia 15.5404
lfoot -25.2201 31.786
ltoes 11.7925
1827
root 10.8354 17.7991 -0.21867 -6.02062 -36.9718 0.704206
lowerback 1.87553 -8.34632 -8.54748
upperback -1.14692 -11.3589 -0.171617
thorax -0.633916 -5.61105 4.60765
lowerneck -6.85966 -12.5564 -8.78373
upperneck 0.756942 -16.3226 7.94032
head 2.67079 -7.99067 2.86445
rclavicle 8.33902e-014 2.28602e-015
rhumerus 45.9618 -12.8735 -74.8617
rradius 30.66
rwrist -46.3958
rhand -31.4478 4.80938
rfingers 7.12502
rthumb -4.71556 -25.1181
lclavicle 8.33902e-014 2.28602e-015
lhumerus 77.1772 -51.6175 32.4241
lradius 86.3184
lwrist 38.9811
lhand -30.3665 5.74321
lfingers 7.12502
lthumb -3.67136 35.6913
rfemur -2.47107 16.5759 16.666
rtibia 18.5709
rfoot -8.02389 -1.70192
rtoes -5.60027
lfemur 7.19793 11.3641 -24.2467
ltibia 15.4665
lfoot -26.0252 31.7626
ltoes 13.5491
